<svg width="14" height="15" viewBox="0 0 14 15" fill="none" xmlns="http://www.w3.org/2000/svg">
<g id="Bank">
<path id="Vector" d="M13.5625 11.875C13.5625 11.9911 13.5164 12.1023 13.4344 12.1844C13.3523 12.2664 13.241 12.3125 13.125 12.3125H0.875C0.758968 12.3125 0.647688 12.2664 0.565641 12.1844C0.483594 12.1023 0.4375 11.9911 0.4375 11.875C0.4375 11.759 0.483594 11.6477 0.565641 11.5657C0.647688 11.4836 0.758968 11.4375 0.875 11.4375H13.125C13.241 11.4375 13.3523 11.4836 13.4344 11.5657C13.5164 11.6477 13.5625 11.759 13.5625 11.875ZM0.891406 5.86925C0.865385 5.7775 0.870055 5.67976 0.904707 5.59091C0.939358 5.50206 1.00209 5.42697 1.08336 5.37706L6.77086 1.87706C6.83978 1.83469 6.9191 1.81226 7 1.81226C7.0809 1.81226 7.16022 1.83469 7.22914 1.87706L12.9166 5.37706C12.9979 5.42691 13.0607 5.50195 13.0954 5.59076C13.1301 5.67957 13.1349 5.7773 13.1089 5.86906C13.083 5.96082 13.0278 6.04159 12.9517 6.09908C12.8756 6.15657 12.7829 6.18763 12.6875 6.18753H11.375V9.68753H12.25C12.366 9.68753 12.4773 9.73362 12.5594 9.81567C12.6414 9.89772 12.6875 10.009 12.6875 10.125C12.6875 10.2411 12.6414 10.3523 12.5594 10.4344C12.4773 10.5164 12.366 10.5625 12.25 10.5625H1.75C1.63397 10.5625 1.52269 10.5164 1.44064 10.4344C1.35859 10.3523 1.3125 10.2411 1.3125 10.125C1.3125 10.009 1.35859 9.89772 1.44064 9.81567C1.52269 9.73362 1.63397 9.68753 1.75 9.68753H2.625V6.18753H1.3125C1.21723 6.18756 1.12455 6.1565 1.04855 6.09905C0.972542 6.0416 0.917368 5.96092 0.891406 5.86925ZM7.875 9.25003C7.875 9.36606 7.92109 9.47734 8.00314 9.55939C8.08519 9.64144 8.19647 9.68753 8.3125 9.68753C8.42853 9.68753 8.53981 9.64144 8.62186 9.55939C8.70391 9.47734 8.75 9.36606 8.75 9.25003V6.62503C8.75 6.509 8.70391 6.39772 8.62186 6.31567C8.53981 6.23362 8.42853 6.18753 8.3125 6.18753C8.19647 6.18753 8.08519 6.23362 8.00314 6.31567C7.92109 6.39772 7.875 6.509 7.875 6.62503V9.25003ZM5.25 9.25003C5.25 9.36606 5.29609 9.47734 5.37814 9.55939C5.46019 9.64144 5.57147 9.68753 5.6875 9.68753C5.80353 9.68753 5.91481 9.64144 5.99686 9.55939C6.07891 9.47734 6.125 9.36606 6.125 9.25003V6.62503C6.125 6.509 6.07891 6.39772 5.99686 6.31567C5.91481 6.23362 5.80353 6.18753 5.6875 6.18753C5.57147 6.18753 5.46019 6.23362 5.37814 6.31567C5.29609 6.39772 5.25 6.509 5.25 6.62503V9.25003Z" fill="white"/>
</g>
</svg>
