<svg width="25" height="24" viewBox="0 0 25 24" fill="none" xmlns="http://www.w3.org/2000/svg">
<g id="Bank">
<path id="Vector" d="M23.75 19.5C23.75 19.6989 23.671 19.8897 23.5303 20.0303C23.3897 20.171 23.1989 20.25 23 20.25H2C1.80109 20.25 1.61032 20.171 1.46967 20.0303C1.32902 19.8897 1.25 19.6989 1.25 19.5C1.25 19.3011 1.32902 19.1103 1.46967 18.9697C1.61032 18.829 1.80109 18.75 2 18.75H23C23.1989 18.75 23.3897 18.829 23.5303 18.9697C23.671 19.1103 23.75 19.3011 23.75 19.5ZM2.02812 9.20439C1.98352 9.0471 1.99152 8.87955 2.05093 8.72724C2.11033 8.57492 2.21787 8.44619 2.35719 8.36064L12.1072 2.36064C12.2253 2.288 12.3613 2.24954 12.5 2.24954C12.6387 2.24954 12.7747 2.288 12.8928 2.36064L22.6428 8.36064C22.7822 8.44609 22.8898 8.57473 22.9493 8.72698C23.0088 8.87923 23.017 9.04676 22.9725 9.20406C22.928 9.36136 22.8334 9.49983 22.7029 9.59838C22.5725 9.69694 22.4135 9.75018 22.25 9.75001H20V15.75H21.5C21.6989 15.75 21.8897 15.829 22.0303 15.9697C22.171 16.1103 22.25 16.3011 22.25 16.5C22.25 16.6989 22.171 16.8897 22.0303 17.0303C21.8897 17.171 21.6989 17.25 21.5 17.25H3.5C3.30109 17.25 3.11032 17.171 2.96967 17.0303C2.82902 16.8897 2.75 16.6989 2.75 16.5C2.75 16.3011 2.82902 16.1103 2.96967 15.9697C3.11032 15.829 3.30109 15.75 3.5 15.75H5V9.75001H2.75C2.58668 9.75007 2.4278 9.69681 2.29751 9.59833C2.16721 9.49985 2.07263 9.36153 2.02812 9.20439ZM14 15C14 15.1989 14.079 15.3897 14.2197 15.5303C14.3603 15.671 14.5511 15.75 14.75 15.75C14.9489 15.75 15.1397 15.671 15.2803 15.5303C15.421 15.3897 15.5 15.1989 15.5 15V10.5C15.5 10.3011 15.421 10.1103 15.2803 9.96968C15.1397 9.82903 14.9489 9.75001 14.75 9.75001C14.5511 9.75001 14.3603 9.82903 14.2197 9.96968C14.079 10.1103 14 10.3011 14 10.5V15ZM9.5 15C9.5 15.1989 9.57902 15.3897 9.71967 15.5303C9.86032 15.671 10.0511 15.75 10.25 15.75C10.4489 15.75 10.6397 15.671 10.7803 15.5303C10.921 15.3897 11 15.1989 11 15V10.5C11 10.3011 10.921 10.1103 10.7803 9.96968C10.6397 9.82903 10.4489 9.75001 10.25 9.75001C10.0511 9.75001 9.86032 9.82903 9.71967 9.96968C9.57902 10.1103 9.5 10.3011 9.5 10.5V15Z" fill="white"/>
</g>
</svg>
