<svg width="14" height="15" viewBox="0 0 14 15" fill="none" xmlns="http://www.w3.org/2000/svg">
<g id="CalendarDots">
<path id="Vector" d="M11.375 2.25H10.0625V1.8125C10.0625 1.69647 10.0164 1.58519 9.93436 1.50314C9.85231 1.42109 9.74103 1.375 9.625 1.375C9.50897 1.375 9.39769 1.42109 9.31564 1.50314C9.23359 1.58519 9.1875 1.69647 9.1875 1.8125V2.25H4.8125V1.8125C4.8125 1.69647 4.76641 1.58519 4.68436 1.50314C4.60231 1.42109 4.49103 1.375 4.375 1.375C4.25897 1.375 4.14769 1.42109 4.06564 1.50314C3.98359 1.58519 3.9375 1.69647 3.9375 1.8125V2.25H2.625C2.39294 2.25 2.17038 2.34219 2.00628 2.50628C1.84219 2.67038 1.75 2.89294 1.75 3.125V11.875C1.75 12.1071 1.84219 12.3296 2.00628 12.4937C2.17038 12.6578 2.39294 12.75 2.625 12.75H11.375C11.6071 12.75 11.8296 12.6578 11.9937 12.4937C12.1578 12.3296 12.25 12.1071 12.25 11.875V3.125C12.25 2.89294 12.1578 2.67038 11.9937 2.50628C11.8296 2.34219 11.6071 2.25 11.375 2.25ZM4.59375 10.5625C4.46396 10.5625 4.33708 10.524 4.22916 10.4519C4.12124 10.3798 4.03712 10.2773 3.98745 10.1574C3.93778 10.0375 3.92479 9.90552 3.95011 9.77822C3.97543 9.65092 4.03793 9.53399 4.12971 9.44221C4.22149 9.35043 4.33842 9.28793 4.46572 9.26261C4.59302 9.23729 4.72497 9.25028 4.84489 9.29995C4.9648 9.34962 5.06729 9.43374 5.1394 9.54166C5.21151 9.64958 5.25 9.77646 5.25 9.90625C5.25 10.0803 5.18086 10.2472 5.05779 10.3703C4.93472 10.4934 4.7678 10.5625 4.59375 10.5625ZM7 10.5625C6.87021 10.5625 6.74333 10.524 6.63541 10.4519C6.52749 10.3798 6.44337 10.2773 6.3937 10.1574C6.34403 10.0375 6.33104 9.90552 6.35636 9.77822C6.38168 9.65092 6.44418 9.53399 6.53596 9.44221C6.62774 9.35043 6.74467 9.28793 6.87197 9.26261C6.99927 9.23729 7.13122 9.25028 7.25114 9.29995C7.37105 9.34962 7.47354 9.43374 7.54565 9.54166C7.61776 9.64958 7.65625 9.77646 7.65625 9.90625C7.65625 10.0803 7.58711 10.2472 7.46404 10.3703C7.34097 10.4934 7.17405 10.5625 7 10.5625ZM7 8.375C6.87021 8.375 6.74333 8.33651 6.63541 8.2644C6.52749 8.19229 6.44337 8.0898 6.3937 7.96989C6.34403 7.84997 6.33104 7.71802 6.35636 7.59072C6.38168 7.46342 6.44418 7.34649 6.53596 7.25471C6.62774 7.16293 6.74467 7.10043 6.87197 7.07511C6.99927 7.04979 7.13122 7.06278 7.25114 7.11245C7.37105 7.16212 7.47354 7.24624 7.54565 7.35416C7.61776 7.46208 7.65625 7.58896 7.65625 7.71875C7.65625 7.8928 7.58711 8.05972 7.46404 8.18279C7.34097 8.30586 7.17405 8.375 7 8.375ZM9.40625 10.5625C9.27646 10.5625 9.14958 10.524 9.04166 10.4519C8.93374 10.3798 8.84962 10.2773 8.79995 10.1574C8.75028 10.0375 8.73729 9.90552 8.76261 9.77822C8.78793 9.65092 8.85043 9.53399 8.94221 9.44221C9.03399 9.35043 9.15092 9.28793 9.27822 9.26261C9.40552 9.23729 9.53747 9.25028 9.65739 9.29995C9.7773 9.34962 9.87979 9.43374 9.9519 9.54166C10.024 9.64958 10.0625 9.77646 10.0625 9.90625C10.0625 10.0803 9.99336 10.2472 9.87029 10.3703C9.74722 10.4934 9.5803 10.5625 9.40625 10.5625ZM9.40625 8.375C9.27646 8.375 9.14958 8.33651 9.04166 8.2644C8.93374 8.19229 8.84962 8.0898 8.79995 7.96989C8.75028 7.84997 8.73729 7.71802 8.76261 7.59072C8.78793 7.46342 8.85043 7.34649 8.94221 7.25471C9.03399 7.16293 9.15092 7.10043 9.27822 7.07511C9.40552 7.04979 9.53747 7.06278 9.65739 7.11245C9.7773 7.16212 9.87979 7.24624 9.9519 7.35416C10.024 7.46208 10.0625 7.58896 10.0625 7.71875C10.0625 7.8928 9.99336 8.05972 9.87029 8.18279C9.74722 8.30586 9.5803 8.375 9.40625 8.375ZM11.375 4.875H2.625V3.125H3.9375V3.5625C3.9375 3.67853 3.98359 3.78981 4.06564 3.87186C4.14769 3.95391 4.25897 4 4.375 4C4.49103 4 4.60231 3.95391 4.68436 3.87186C4.76641 3.78981 4.8125 3.67853 4.8125 3.5625V3.125H9.1875V3.5625C9.1875 3.67853 9.23359 3.78981 9.31564 3.87186C9.39769 3.95391 9.50897 4 9.625 4C9.74103 4 9.85231 3.95391 9.93436 3.87186C10.0164 3.78981 10.0625 3.67853 10.0625 3.5625V3.125H11.375V4.875Z" fill="white"/>
</g>
</svg>
