<svg width="25" height="24" viewBox="0 0 25 24" fill="none" xmlns="http://www.w3.org/2000/svg">
<g id="CalendarDots">
<path id="Vector" d="M20 3H17.75V2.25C17.75 2.05109 17.671 1.86032 17.5303 1.71967C17.3897 1.57902 17.1989 1.5 17 1.5C16.8011 1.5 16.6103 1.57902 16.4697 1.71967C16.329 1.86032 16.25 2.05109 16.25 2.25V3H8.75V2.25C8.75 2.05109 8.67098 1.86032 8.53033 1.71967C8.38968 1.57902 8.19891 1.5 8 1.5C7.80109 1.5 7.61032 1.57902 7.46967 1.71967C7.32902 1.86032 7.25 2.05109 7.25 2.25V3H5C4.60218 3 4.22064 3.15804 3.93934 3.43934C3.65804 3.72064 3.5 4.10218 3.5 4.5V19.5C3.5 19.8978 3.65804 20.2794 3.93934 20.5607C4.22064 20.842 4.60218 21 5 21H20C20.3978 21 20.7794 20.842 21.0607 20.5607C21.342 20.2794 21.5 19.8978 21.5 19.5V4.5C21.5 4.10218 21.342 3.72064 21.0607 3.43934C20.7794 3.15804 20.3978 3 20 3ZM8.375 17.25C8.1525 17.25 7.93499 17.184 7.74998 17.0604C7.56498 16.9368 7.42078 16.7611 7.33564 16.5555C7.25049 16.35 7.22821 16.1238 7.27162 15.9055C7.31502 15.6873 7.42217 15.4868 7.5795 15.3295C7.73684 15.1722 7.93729 15.065 8.15552 15.0216C8.37375 14.9782 8.59995 15.0005 8.80552 15.0856C9.01109 15.1708 9.18679 15.315 9.3104 15.5C9.43402 15.685 9.5 15.9025 9.5 16.125C9.5 16.4234 9.38147 16.7095 9.1705 16.9205C8.95952 17.1315 8.67337 17.25 8.375 17.25ZM12.5 17.25C12.2775 17.25 12.06 17.184 11.875 17.0604C11.69 16.9368 11.5458 16.7611 11.4606 16.5555C11.3755 16.35 11.3532 16.1238 11.3966 15.9055C11.44 15.6873 11.5472 15.4868 11.7045 15.3295C11.8618 15.1722 12.0623 15.065 12.2805 15.0216C12.4988 14.9782 12.725 15.0005 12.9305 15.0856C13.1361 15.1708 13.3118 15.315 13.4354 15.5C13.559 15.685 13.625 15.9025 13.625 16.125C13.625 16.4234 13.5065 16.7095 13.2955 16.9205C13.0845 17.1315 12.7984 17.25 12.5 17.25ZM12.5 13.5C12.2775 13.5 12.06 13.434 11.875 13.3104C11.69 13.1868 11.5458 13.0111 11.4606 12.8055C11.3755 12.6 11.3532 12.3738 11.3966 12.1555C11.44 11.9373 11.5472 11.7368 11.7045 11.5795C11.8618 11.4222 12.0623 11.315 12.2805 11.2716C12.4988 11.2282 12.725 11.2505 12.9305 11.3356C13.1361 11.4208 13.3118 11.565 13.4354 11.75C13.559 11.935 13.625 12.1525 13.625 12.375C13.625 12.6734 13.5065 12.9595 13.2955 13.1705C13.0845 13.3815 12.7984 13.5 12.5 13.5ZM16.625 17.25C16.4025 17.25 16.185 17.184 16 17.0604C15.815 16.9368 15.6708 16.7611 15.5856 16.5555C15.5005 16.35 15.4782 16.1238 15.5216 15.9055C15.565 15.6873 15.6722 15.4868 15.8295 15.3295C15.9868 15.1722 16.1873 15.065 16.4055 15.0216C16.6238 14.9782 16.85 15.0005 17.0555 15.0856C17.2611 15.1708 17.4368 15.315 17.5604 15.5C17.684 15.685 17.75 15.9025 17.75 16.125C17.75 16.4234 17.6315 16.7095 17.4205 16.9205C17.2095 17.1315 16.9234 17.25 16.625 17.25ZM16.625 13.5C16.4025 13.5 16.185 13.434 16 13.3104C15.815 13.1868 15.6708 13.0111 15.5856 12.8055C15.5005 12.6 15.4782 12.3738 15.5216 12.1555C15.565 11.9373 15.6722 11.7368 15.8295 11.5795C15.9868 11.4222 16.1873 11.315 16.4055 11.2716C16.6238 11.2282 16.85 11.2505 17.0555 11.3356C17.2611 11.4208 17.4368 11.565 17.5604 11.75C17.684 11.935 17.75 12.1525 17.75 12.375C17.75 12.6734 17.6315 12.9595 17.4205 13.1705C17.2095 13.3815 16.9234 13.5 16.625 13.5ZM20 7.5H5V4.5H7.25V5.25C7.25 5.44891 7.32902 5.63968 7.46967 5.78033C7.61032 5.92098 7.80109 6 8 6C8.19891 6 8.38968 5.92098 8.53033 5.78033C8.67098 5.63968 8.75 5.44891 8.75 5.25V4.5H16.25V5.25C16.25 5.44891 16.329 5.63968 16.4697 5.78033C16.6103 5.92098 16.8011 6 17 6C17.1989 6 17.3897 5.92098 17.5303 5.78033C17.671 5.63968 17.75 5.44891 17.75 5.25V4.5H20V7.5Z" fill="white"/>
</g>
</svg>
