<svg width="49" height="48" viewBox="0 0 49 48" fill="none" xmlns="http://www.w3.org/2000/svg">
<g id="ChatDots">
<path id="Vector" d="M24.5 26.25C25.7426 26.25 26.75 25.2426 26.75 24C26.75 22.7574 25.7426 21.75 24.5 21.75C23.2574 21.75 22.25 22.7574 22.25 24C22.25 25.2426 23.2574 26.25 24.5 26.25Z" fill="#FF6B00"/>
<path id="Vector_2" d="M16.25 26.25C17.4926 26.25 18.5 25.2426 18.5 24C18.5 22.7574 17.4926 21.75 16.25 21.75C15.0074 21.75 14 22.7574 14 24C14 25.2426 15.0074 26.25 16.25 26.25Z" fill="#FF6B00"/>
<path id="Vector_3" d="M32.75 26.25C33.9926 26.25 35 25.2426 35 24C35 22.7574 33.9926 21.75 32.75 21.75C31.5074 21.75 30.5 22.7574 30.5 24C30.5 25.2426 31.5074 26.25 32.75 26.25Z" fill="#FF6B00"/>
<path id="Vector_4" opacity="0.2" d="M8.96563 43.1456C8.74715 43.3294 8.48076 43.447 8.19774 43.4847C7.91473 43.5223 7.62686 43.4784 7.36794 43.3581C7.10902 43.2378 6.88981 43.0461 6.73606 42.8055C6.58232 42.565 6.50042 42.2855 6.5 42V12C6.5 11.6022 6.65804 11.2206 6.93934 10.9393C7.22064 10.658 7.60218 10.5 8 10.5H41C41.3978 10.5 41.7794 10.658 42.0607 10.9393C42.342 11.2206 42.5 11.6022 42.5 12V36C42.5 36.3978 42.342 36.7794 42.0607 37.0607C41.7794 37.342 41.3978 37.5 41 37.5H15.5L8.96563 43.1456Z" fill="#FF6B00"/>
<path id="Vector_5" d="M8.96563 43.1456C8.74715 43.3294 8.48076 43.447 8.19774 43.4847C7.91473 43.5223 7.62686 43.4784 7.36794 43.3581C7.10902 43.2378 6.88981 43.0461 6.73606 42.8055C6.58232 42.565 6.50042 42.2855 6.5 42V12C6.5 11.6022 6.65804 11.2206 6.93934 10.9393C7.22064 10.658 7.60218 10.5 8 10.5H41C41.3978 10.5 41.7794 10.658 42.0607 10.9393C42.342 11.2206 42.5 11.6022 42.5 12V36C42.5 36.3978 42.342 36.7794 42.0607 37.0607C41.7794 37.342 41.3978 37.5 41 37.5H15.5L8.96563 43.1456Z" stroke="#FF6B00" stroke-width="3" stroke-linecap="round" stroke-linejoin="round"/>
</g>
</svg>
