<svg width="14" height="15" viewBox="0 0 14 15" fill="none" xmlns="http://www.w3.org/2000/svg">
<g id="CreditCard">
<path id="Vector" d="M12.25 3.125H1.75C1.51794 3.125 1.29538 3.21719 1.13128 3.38128C0.967187 3.54538 0.875 3.76794 0.875 4V11C0.875 11.2321 0.967187 11.4546 1.13128 11.6187C1.29538 11.7828 1.51794 11.875 1.75 11.875H12.25C12.4821 11.875 12.7046 11.7828 12.8687 11.6187C13.0328 11.4546 13.125 11.2321 13.125 11V4C13.125 3.76794 13.0328 3.54538 12.8687 3.38128C12.7046 3.21719 12.4821 3.125 12.25 3.125ZM7.4375 10.125H6.5625C6.44647 10.125 6.33519 10.0789 6.25314 9.99686C6.17109 9.91481 6.125 9.80353 6.125 9.6875C6.125 9.57147 6.17109 9.46019 6.25314 9.37814C6.33519 9.29609 6.44647 9.25 6.5625 9.25H7.4375C7.55353 9.25 7.66481 9.29609 7.74686 9.37814C7.82891 9.46019 7.875 9.57147 7.875 9.6875C7.875 9.80353 7.82891 9.91481 7.74686 9.99686C7.66481 10.0789 7.55353 10.125 7.4375 10.125ZM10.9375 10.125H9.1875C9.07147 10.125 8.96019 10.0789 8.87814 9.99686C8.79609 9.91481 8.75 9.80353 8.75 9.6875C8.75 9.57147 8.79609 9.46019 8.87814 9.37814C8.96019 9.29609 9.07147 9.25 9.1875 9.25H10.9375C11.0535 9.25 11.1648 9.29609 11.2469 9.37814C11.3289 9.46019 11.375 9.57147 11.375 9.6875C11.375 9.80353 11.3289 9.91481 11.2469 9.99686C11.1648 10.0789 11.0535 10.125 10.9375 10.125ZM1.75 5.3125V4H12.25V5.3125H1.75Z" fill="white"/>
</g>
</svg>
