<svg width="16" height="10" viewBox="0 0 16 10" fill="none" xmlns="http://www.w3.org/2000/svg">
<g id="United States Minor Outlying Islands">
<g clip-path="url(#clip0_1451_7103)">
<path id="Vector" d="M0 0H16V10H0V0Z" fill="#B22234"/>
<path id="Vector (Stroke)" fill-rule="evenodd" clip-rule="evenodd" d="M16 1.53266H0V0.775085H16V1.53266ZM0 2.31355H16V3.07112H0V2.31355ZM16 4.60958H0V3.85201H16V4.60958ZM0 5.39047H16V6.14805H0V5.39047ZM16 7.68651H0V6.92893H16V7.68651ZM0 8.46739H16V9.22497H0V8.46739Z" fill="white"/>
<path id="Vector_2" d="M0 0H6.4V5.38461H0V0Z" fill="#3C3B6E"/>
<g id="Group">
<g id="d">
<g id="c">
<g id="e">
<g id="b">
<path id="a" d="M0.533352 0.230774L0.685652 0.787395L0.286926 0.443384H0.77978L0.381052 0.787395L0.533352 0.230774Z" fill="white"/>
<path id="a_2" d="M0.533352 1.30768L0.685652 1.8643L0.286926 1.52029H0.77978L0.381052 1.8643L0.533352 1.30768Z" fill="white"/>
<path id="a_3" d="M0.533352 2.38464L0.685652 2.94126L0.286926 2.59725H0.77978L0.381052 2.94126L0.533352 2.38464Z" fill="white"/>
<path id="a_4" d="M0.533352 3.46155L0.685652 4.01817L0.286926 3.67416H0.77978L0.381052 4.01817L0.533352 3.46155Z" fill="white"/>
</g>
<path id="a_5" d="M0.533352 4.53845L0.685652 5.09507L0.286926 4.75106H0.77978L0.381052 5.09507L0.533352 4.53845Z" fill="white"/>
</g>
<g id="b_2">
<path id="a_6" d="M1.06668 0.769226L1.21898 1.32585L0.820251 0.981836H1.31311L0.914377 1.32585L1.06668 0.769226Z" fill="white"/>
<path id="a_7" d="M1.06668 1.84613L1.21898 2.40275L0.820251 2.05874H1.31311L0.914377 2.40275L1.06668 1.84613Z" fill="white"/>
<path id="a_8" d="M1.06668 2.9231L1.21898 3.47972L0.820251 3.13571H1.31311L0.914377 3.47972L1.06668 2.9231Z" fill="white"/>
<path id="a_9" d="M1.06668 4L1.21898 4.55662L0.820251 4.21261H1.31311L0.914377 4.55662L1.06668 4Z" fill="white"/>
</g>
</g>
<g id="c_2">
<g id="e_2">
<g id="b_3">
<path id="a_10" d="M1.6 0.230774L1.7523 0.787395L1.35358 0.443384H1.84643L1.4477 0.787395L1.6 0.230774Z" fill="white"/>
<path id="a_11" d="M1.6 1.30768L1.7523 1.8643L1.35358 1.52029H1.84643L1.4477 1.8643L1.6 1.30768Z" fill="white"/>
<path id="a_12" d="M1.6 2.38464L1.7523 2.94126L1.35358 2.59725H1.84643L1.4477 2.94126L1.6 2.38464Z" fill="white"/>
<path id="a_13" d="M1.6 3.46155L1.7523 4.01817L1.35358 3.67416H1.84643L1.4477 4.01817L1.6 3.46155Z" fill="white"/>
</g>
<path id="a_14" d="M1.6 4.53845L1.7523 5.09507L1.35358 4.75106H1.84643L1.4477 5.09507L1.6 4.53845Z" fill="white"/>
</g>
<g id="b_4">
<path id="a_15" d="M2.13333 0.769226L2.28563 1.32585L1.8869 0.981836H2.37976L1.98103 1.32585L2.13333 0.769226Z" fill="white"/>
<path id="a_16" d="M2.13333 1.84613L2.28563 2.40275L1.8869 2.05874H2.37976L1.98103 2.40275L2.13333 1.84613Z" fill="white"/>
<path id="a_17" d="M2.13333 2.9231L2.28563 3.47972L1.8869 3.13571H2.37976L1.98103 3.47972L2.13333 2.9231Z" fill="white"/>
<path id="a_18" d="M2.13333 4L2.28563 4.55662L1.8869 4.21261H2.37976L1.98103 4.55662L2.13333 4Z" fill="white"/>
</g>
</g>
</g>
<g id="d_2">
<g id="c_3">
<g id="e_3">
<g id="b_5">
<path id="a_19" d="M2.66671 0.230774L2.81901 0.787395L2.42029 0.443384H2.91314L2.51441 0.787395L2.66671 0.230774Z" fill="white"/>
<path id="a_20" d="M2.66671 1.30768L2.81901 1.8643L2.42029 1.52029H2.91314L2.51441 1.8643L2.66671 1.30768Z" fill="white"/>
<path id="a_21" d="M2.66671 2.38464L2.81901 2.94126L2.42029 2.59725H2.91314L2.51441 2.94126L2.66671 2.38464Z" fill="white"/>
<path id="a_22" d="M2.66671 3.46155L2.81901 4.01817L2.42029 3.67416H2.91314L2.51441 4.01817L2.66671 3.46155Z" fill="white"/>
</g>
<path id="a_23" d="M2.66671 4.53845L2.81901 5.09507L2.42029 4.75106H2.91314L2.51441 5.09507L2.66671 4.53845Z" fill="white"/>
</g>
<g id="b_6">
<path id="a_24" d="M3.20004 0.769226L3.35234 1.32585L2.95361 0.981836H3.44647L3.04774 1.32585L3.20004 0.769226Z" fill="white"/>
<path id="a_25" d="M3.20004 1.84613L3.35234 2.40275L2.95361 2.05874H3.44647L3.04774 2.40275L3.20004 1.84613Z" fill="white"/>
<path id="a_26" d="M3.20004 2.9231L3.35234 3.47972L2.95361 3.13571H3.44647L3.04774 3.47972L3.20004 2.9231Z" fill="white"/>
<path id="a_27" d="M3.20004 4L3.35234 4.55662L2.95361 4.21261H3.44647L3.04774 4.55662L3.20004 4Z" fill="white"/>
</g>
</g>
<g id="c_4">
<g id="e_4">
<g id="b_7">
<path id="a_28" d="M3.73336 0.230774L3.88566 0.787395L3.48694 0.443384H3.97979L3.58106 0.787395L3.73336 0.230774Z" fill="white"/>
<path id="a_29" d="M3.73336 1.30768L3.88566 1.8643L3.48694 1.52029H3.97979L3.58106 1.8643L3.73336 1.30768Z" fill="white"/>
<path id="a_30" d="M3.73336 2.38464L3.88566 2.94126L3.48694 2.59725H3.97979L3.58106 2.94126L3.73336 2.38464Z" fill="white"/>
<path id="a_31" d="M3.73336 3.46155L3.88566 4.01817L3.48694 3.67416H3.97979L3.58106 4.01817L3.73336 3.46155Z" fill="white"/>
</g>
<path id="a_32" d="M3.73336 4.53845L3.88566 5.09507L3.48694 4.75106H3.97979L3.58106 5.09507L3.73336 4.53845Z" fill="white"/>
</g>
<g id="b_8">
<path id="a_33" d="M4.26669 0.769226L4.41899 1.32585L4.02026 0.981836H4.51312L4.11439 1.32585L4.26669 0.769226Z" fill="white"/>
<path id="a_34" d="M4.26669 1.84613L4.41899 2.40275L4.02026 2.05874H4.51312L4.11439 2.40275L4.26669 1.84613Z" fill="white"/>
<path id="a_35" d="M4.26669 2.9231L4.41899 3.47972L4.02026 3.13571H4.51312L4.11439 3.47972L4.26669 2.9231Z" fill="white"/>
<path id="a_36" d="M4.26669 4L4.41899 4.55662L4.02026 4.21261H4.51312L4.11439 4.55662L4.26669 4Z" fill="white"/>
</g>
</g>
</g>
<g id="c_5">
<g id="e_5">
<g id="b_9">
<path id="a_37" d="M4.80001 0.230774L4.95231 0.787395L4.55359 0.443384H5.04644L4.64771 0.787395L4.80001 0.230774Z" fill="white"/>
<path id="a_38" d="M4.80001 1.30768L4.95231 1.8643L4.55359 1.52029H5.04644L4.64771 1.8643L4.80001 1.30768Z" fill="white"/>
<path id="a_39" d="M4.80001 2.38464L4.95231 2.94126L4.55359 2.59725H5.04644L4.64771 2.94126L4.80001 2.38464Z" fill="white"/>
<path id="a_40" d="M4.80001 3.46155L4.95231 4.01817L4.55359 3.67416H5.04644L4.64771 4.01817L4.80001 3.46155Z" fill="white"/>
</g>
<path id="a_41" d="M4.80001 4.53845L4.95231 5.09507L4.55359 4.75106H5.04644L4.64771 5.09507L4.80001 4.53845Z" fill="white"/>
</g>
<g id="b_10">
<path id="a_42" d="M5.33334 0.769226L5.48564 1.32585L5.08691 0.981836H5.57977L5.18104 1.32585L5.33334 0.769226Z" fill="white"/>
<path id="a_43" d="M5.33334 1.84613L5.48564 2.40275L5.08691 2.05874H5.57977L5.18104 2.40275L5.33334 1.84613Z" fill="white"/>
<path id="a_44" d="M5.33334 2.9231L5.48564 3.47972L5.08691 3.13571H5.57977L5.18104 3.47972L5.33334 2.9231Z" fill="white"/>
<path id="a_45" d="M5.33334 4L5.48564 4.55662L5.08691 4.21261H5.57977L5.18104 4.55662L5.33334 4Z" fill="white"/>
</g>
</g>
<g id="e_6">
<g id="b_11">
<path id="a_46" d="M5.86667 0.230774L6.01897 0.787395L5.62024 0.443384H6.11309L5.71437 0.787395L5.86667 0.230774Z" fill="white"/>
<path id="a_47" d="M5.86667 1.30768L6.01897 1.8643L5.62024 1.52029H6.11309L5.71437 1.8643L5.86667 1.30768Z" fill="white"/>
<path id="a_48" d="M5.86667 2.38464L6.01897 2.94126L5.62024 2.59725H6.11309L5.71437 2.94126L5.86667 2.38464Z" fill="white"/>
<path id="a_49" d="M5.86667 3.46155L6.01897 4.01817L5.62024 3.67416H6.11309L5.71437 4.01817L5.86667 3.46155Z" fill="white"/>
</g>
<path id="a_50" d="M5.86667 4.53845L6.01897 5.09507L5.62024 4.75106H6.11309L5.71437 5.09507L5.86667 4.53845Z" fill="white"/>
</g>
</g>
</g>
</g>
<defs>
<clipPath id="clip0_1451_7103">
<rect width="16" height="10" rx="1" fill="white"/>
</clipPath>
</defs>
</svg>
