<svg width="16" height="16" viewBox="0 0 16 16" fill="none" xmlns="http://www.w3.org/2000/svg">
<g id="elements">
<path id="Rectangle 2362" d="M10.6667 6.6665L12.0996 7.09638C13.0151 7.37102 13.4728 7.50834 13.7364 7.86264C14 8.21694 14 8.69482 14 9.65059V14.6665" stroke="white" stroke-linejoin="round"/>
<path id="Vector" d="M5.33334 6L7.33334 6M5.33334 8.66667L7.33334 8.66667" stroke="white" stroke-linecap="round" stroke-linejoin="round"/>
<path id="Rectangle 2360" d="M8.00002 14.6663V12.6663C8.00002 12.0378 8.00002 11.7235 7.80476 11.5283C7.6095 11.333 7.29523 11.333 6.66669 11.333H6.00002C5.37148 11.333 5.05721 11.333 4.86195 11.5283C4.66669 11.7235 4.66669 12.0378 4.66669 12.6663V14.6663" stroke="white" stroke-linejoin="round"/>
<path id="Vector 6003" d="M1.33334 14.6665L14.6667 14.6665" stroke="white" stroke-linecap="round"/>
<path id="Vector 6728" d="M2 14.6663V4.47784C2 2.804 2 1.96708 2.52746 1.55184C3.05491 1.13659 3.83161 1.36204 5.38501 1.81294L8.71835 2.78049C9.65576 3.05258 10.1245 3.18863 10.3956 3.55944C10.6667 3.93025 10.6667 4.4353 10.6667 5.44539V14.6663" stroke="white" stroke-linecap="round" stroke-linejoin="round"/>
</g>
</svg>
