<svg width="16" height="13" viewBox="0 0 16 13" fill="none" xmlns="http://www.w3.org/2000/svg">
<g id="elements">
<path id="Vector 7163" d="M1.33334 2.5L5.94203 5.11131C7.64108 6.07401 8.35895 6.07401 10.058 5.11131L14.6667 2.5" stroke="white" stroke-linejoin="round"/>
<path id="Vector" d="M1.34385 7.48391C1.38744 9.5276 1.40923 10.5494 2.16331 11.3064C2.9174 12.0634 3.9669 12.0897 6.0659 12.1425C7.35955 12.175 8.64047 12.175 9.93413 12.1425C12.0331 12.0897 13.0826 12.0634 13.8367 11.3064C14.5908 10.5494 14.6126 9.5276 14.6562 7.48391C14.6702 6.82679 14.6702 6.17355 14.6562 5.51643C14.6126 3.47274 14.5908 2.45089 13.8367 1.69394C13.0826 0.936984 12.0331 0.910614 9.93413 0.857875C8.64047 0.825371 7.35955 0.82537 6.06589 0.857871C3.9669 0.910605 2.9174 0.936972 2.16331 1.69393C1.40923 2.45088 1.38743 3.47273 1.34385 5.51642C1.32984 6.17354 1.32984 6.82679 1.34385 7.48391Z" stroke="white" stroke-linejoin="round"/>
</g>
</svg>
