<svg width="16" height="16" viewBox="0 0 16 16" fill="none" xmlns="http://www.w3.org/2000/svg">
<g id="PaperPlaneTilt">
<path id="Vector" d="M0.0625 15.9375V0.0625H15.9375V15.9375H0.0625Z" stroke="white" stroke-width="0.125"/>
<path id="Vector_2" d="M6.75 9.25L10 6" stroke="white" stroke-width="2" stroke-linecap="round" stroke-linejoin="round"/>
<path id="Vector_3" d="M13.9806 2.63623C14.0047 2.5507 14.0056 2.46029 13.9831 2.37431C13.9607 2.28833 13.9157 2.20989 13.8529 2.14706C13.79 2.08422 13.7116 2.03927 13.6256 2.01682C13.5396 1.99438 13.4492 1.99525 13.3637 2.01935L1.36371 5.6581C1.26574 5.68575 1.17854 5.74265 1.11377 5.82118C1.049 5.89972 1.00975 5.99615 1.00126 6.09759C0.992762 6.19903 1.01543 6.30065 1.06624 6.38886C1.11705 6.47707 1.19357 6.54767 1.28558 6.59123L6.74996 9.24998L9.4087 14.7137C9.45226 14.8057 9.52286 14.8823 9.61107 14.9331C9.69928 14.9839 9.8009 15.0065 9.90234 14.9981C10.0038 14.9896 10.1002 14.9503 10.1788 14.8855C10.2573 14.8208 10.3142 14.7336 10.3418 14.6356L13.9806 2.63623Z" stroke="white" stroke-width="2" stroke-linecap="round" stroke-linejoin="round"/>
</g>
</svg>
