<svg width="16" height="15" viewBox="0 0 16 15" fill="none" xmlns="http://www.w3.org/2000/svg">
<g id="elements">
<path id="Vector" d="M2.51843 7.46173C1.88641 6.3597 1.58124 5.45982 1.39723 4.54764C1.12509 3.19855 1.74788 1.8807 2.7796 1.03981C3.21564 0.684418 3.7155 0.805841 3.97335 1.26843L4.55547 2.31277C5.01687 3.14054 5.24757 3.55443 5.20181 3.99322C5.15605 4.43202 4.84492 4.7894 4.22266 5.50417L2.51843 7.46173ZM2.51843 7.46173C3.79768 9.69235 5.80524 11.701 8.03844 12.9817M8.03844 12.9817C9.14047 13.6138 10.0404 13.9189 10.9525 14.1029C12.3016 14.3751 13.6195 13.7523 14.4604 12.7206C14.8158 12.2845 14.6943 11.7847 14.2317 11.5268L13.1874 10.9447C12.3596 10.4833 11.9457 10.2526 11.5069 10.2984C11.0682 10.3441 10.7108 10.6553 9.99601 11.2775L8.03844 12.9817Z" stroke="white" stroke-linejoin="round"/>
<path id="Vector_2" d="M9.33334 4.05473C10.2822 4.45765 11.0425 5.21801 11.4455 6.16683M9.76936 0.833496C12.1275 1.514 13.9861 3.37251 14.6667 5.73058" stroke="white" stroke-linecap="round"/>
</g>
</svg>
