<svg width="49" height="48" viewBox="0 0 49 48" fill="none" xmlns="http://www.w3.org/2000/svg">
<g id="Phone">
<path id="Vector" opacity="0.2" d="M31.3231 27.2505C31.5309 27.1122 31.7698 27.028 32.0183 27.0054C32.2668 26.9828 32.517 27.0226 32.7463 27.1211L41.5888 31.083C41.8868 31.2103 42.1355 31.4308 42.2977 31.7113C42.46 31.9919 42.527 32.3174 42.4888 32.6392C42.1975 34.8162 41.1254 36.8133 39.472 38.259C37.8186 39.7048 35.6964 40.5009 33.5 40.4992C26.737 40.4992 20.251 37.8126 15.4688 33.0304C10.6866 28.2483 8 21.7622 8 14.9992C7.99832 12.8029 8.7944 10.6806 10.2402 9.02723C11.686 7.37382 13.683 6.30178 15.86 6.01048C16.1818 5.97225 16.5074 6.03926 16.7879 6.20151C17.0684 6.36375 17.2889 6.61248 17.4163 6.91048L21.3781 15.7605C21.4755 15.9878 21.5151 16.2356 21.4935 16.482C21.4719 16.7283 21.3898 16.9654 21.2544 17.1724L17.2475 21.9367C17.1054 22.1512 17.0213 22.3989 17.0036 22.6556C16.9858 22.9122 17.035 23.1691 17.1463 23.4011C18.6969 26.5755 21.9781 29.8174 25.1619 31.353C25.3951 31.4638 25.6532 31.5118 25.9106 31.4924C26.1681 31.473 26.416 31.3868 26.63 31.2424L31.3231 27.2505Z" fill="#FF6B00"/>
<path id="Vector_2" d="M31.3231 27.2505C31.5309 27.1122 31.7698 27.028 32.0183 27.0054C32.2668 26.9828 32.517 27.0226 32.7463 27.1211L41.5888 31.083C41.8868 31.2103 42.1355 31.4308 42.2977 31.7113C42.46 31.9919 42.527 32.3174 42.4888 32.6392C42.1975 34.8162 41.1254 36.8133 39.472 38.259C37.8186 39.7048 35.6964 40.5009 33.5 40.4992C26.737 40.4992 20.251 37.8126 15.4688 33.0304C10.6866 28.2483 8 21.7622 8 14.9992C7.99832 12.8029 8.7944 10.6806 10.2402 9.02723C11.686 7.37382 13.683 6.30178 15.86 6.01048C16.1818 5.97225 16.5074 6.03926 16.7879 6.20151C17.0684 6.36375 17.2889 6.61248 17.4163 6.91048L21.3781 15.7605C21.4755 15.9878 21.5151 16.2356 21.4935 16.482C21.4719 16.7283 21.3898 16.9654 21.2544 17.1724L17.2475 21.9367C17.1054 22.1512 17.0213 22.3989 17.0036 22.6555C16.9858 22.9122 17.035 23.1691 17.1463 23.4011C18.6969 26.5755 21.9781 29.8174 25.1619 31.353C25.3951 31.4638 25.6532 31.5118 25.9106 31.4924C26.1681 31.473 26.416 31.3868 26.63 31.2424L31.3231 27.2505Z" stroke="#FF6B00" stroke-width="3" stroke-linecap="round" stroke-linejoin="round"/>
</g>
</svg>
