<svg width="56" height="42" viewBox="0 0 56 42" fill="none" xmlns="http://www.w3.org/2000/svg">
<path id="&#226;&#128;&#156;" d="M23.3529 38.0737C21.3718 40.2702 19.1657 41.5515 16.7344 41.9176C14.3031 42.1922 11.9168 41.7803 9.57555 40.6821C7.32435 39.4923 5.38832 37.7991 3.76745 35.6025C2.14659 33.2229 1.11104 30.4772 0.6608 27.3654C0.21056 24.1621 0.705824 20.73 2.14659 17.0691C3.67741 13.3166 6.37884 9.88451 10.2509 6.77272C14.213 3.56941 18.9405 1.37285 24.4335 0.183044C25.424 0 26.0993 -0.045761 26.4595 0.045761C26.8197 0.137283 27.0448 0.274569 27.1349 0.457618C27.1349 1.28133 26.8648 1.87623 26.3245 2.24231C24.0733 3.52364 22.1823 5.1253 20.6514 7.04729C19.1206 8.96928 18.1751 10.8455 17.8149 12.676C17.4547 14.4149 17.86 15.6962 19.0306 16.5199C19.3908 16.7945 20.2462 17.5725 21.5969 18.8538C22.9477 20.0436 24.2083 21.6452 25.379 23.6587C26.5496 25.5807 27.0899 27.7773 26.9998 30.2484C26.9998 32.7196 25.7842 35.328 23.3529 38.0737ZM51.718 38.0737C49.7369 40.2702 47.5308 41.5515 45.0995 41.9176C42.6682 42.1922 40.2819 41.7803 37.9406 40.6821C35.6894 39.4923 33.7534 37.7991 32.1326 35.6025C30.5117 33.2229 29.4761 30.4772 29.0259 27.3654C28.5757 24.1621 29.0709 20.73 30.5117 17.0691C32.0425 13.3166 34.7439 9.88451 38.616 6.77272C42.5781 3.56941 47.3056 1.37285 52.7986 0.183044C53.7891 0 54.4644 -0.045761 54.8246 0.045761C55.1848 0.137283 55.41 0.274569 55.5 0.457618C55.5 1.28133 55.2299 1.87623 54.6896 2.24231C52.4384 3.52364 50.5474 5.1253 49.0165 7.04729C47.4857 8.96928 46.5402 10.8455 46.18 12.676C45.8198 14.4149 46.2251 15.6962 47.3957 16.5199C47.7559 16.7945 48.6113 17.5725 49.962 18.8538C51.3128 20.0436 52.5734 21.6452 53.7441 23.6587C54.9147 25.5807 55.455 27.7773 55.3649 30.2484C55.3649 32.7196 54.1493 35.328 51.718 38.0737Z" fill="#0D5152"/>
</svg>
