<svg width="25" height="24" viewBox="0 0 25 24" fill="none" xmlns="http://www.w3.org/2000/svg">
<g id="SealPercent">
<path id="Vector" d="M9.5 9.75C9.35166 9.75 9.20666 9.70601 9.08332 9.6236C8.95999 9.54119 8.86386 9.42406 8.80709 9.28701C8.75032 9.14997 8.73547 8.99917 8.76441 8.85368C8.79335 8.7082 8.86478 8.57456 8.96967 8.46967C9.07456 8.36478 9.2082 8.29335 9.35368 8.26441C9.49917 8.23547 9.64997 8.25032 9.78701 8.30709C9.92406 8.36386 10.0412 8.45999 10.1236 8.58332C10.206 8.70666 10.25 8.85166 10.25 9C10.25 9.19891 10.171 9.38968 10.0303 9.53033C9.88968 9.67098 9.69891 9.75 9.5 9.75ZM15.5 14.25C15.3517 14.25 15.2067 14.294 15.0833 14.3764C14.96 14.4588 14.8639 14.5759 14.8071 14.713C14.7503 14.85 14.7355 15.0008 14.7644 15.1463C14.7934 15.2918 14.8648 15.4254 14.9697 15.5303C15.0746 15.6352 15.2082 15.7066 15.3537 15.7356C15.4992 15.7645 15.65 15.7497 15.787 15.6929C15.9241 15.6361 16.0412 15.54 16.1236 15.4167C16.206 15.2933 16.25 15.1483 16.25 15C16.25 14.8011 16.171 14.6103 16.0303 14.4697C15.8897 14.329 15.6989 14.25 15.5 14.25ZM23 12C23 12.9788 22.2959 13.7128 21.6744 14.3606C21.3209 14.73 20.9553 15.1106 20.8175 15.4453C20.69 15.7519 20.6825 16.26 20.675 16.7522C20.6609 17.6672 20.6459 18.7041 19.925 19.425C19.2041 20.1459 18.1672 20.1609 17.2522 20.175C16.76 20.1825 16.2519 20.19 15.9453 20.3175C15.6106 20.4553 15.23 20.8209 14.8606 21.1744C14.2128 21.7959 13.4788 22.5 12.5 22.5C11.5212 22.5 10.7872 21.7959 10.1394 21.1744C9.77 20.8209 9.38938 20.4553 9.05469 20.3175C8.74813 20.19 8.24 20.1825 7.74781 20.175C6.83281 20.1609 5.79594 20.1459 5.075 19.425C4.35406 18.7041 4.33906 17.6672 4.325 16.7522C4.3175 16.26 4.31 15.7519 4.1825 15.4453C4.04469 15.1106 3.67906 14.73 3.32562 14.3606C2.70406 13.7128 2 12.9788 2 12C2 11.0212 2.70406 10.2872 3.32562 9.63937C3.67906 9.27 4.04469 8.88938 4.1825 8.55469C4.31 8.24813 4.3175 7.74 4.325 7.24781C4.33906 6.33281 4.35406 5.29594 5.075 4.575C5.79594 3.85406 6.83281 3.83906 7.74781 3.825C8.24 3.8175 8.74813 3.81 9.05469 3.6825C9.38938 3.54469 9.77 3.17906 10.1394 2.82562C10.7872 2.20406 11.5212 1.5 12.5 1.5C13.4788 1.5 14.2128 2.20406 14.8606 2.82562C15.23 3.17906 15.6106 3.54469 15.9453 3.6825C16.2519 3.81 16.76 3.8175 17.2522 3.825C18.1672 3.83906 19.2041 3.85406 19.925 4.575C20.6459 5.29594 20.6609 6.33281 20.675 7.24781C20.6825 7.74 20.69 8.24813 20.8175 8.55469C20.9553 8.88938 21.3209 9.27 21.6744 9.63937C22.2959 10.2872 23 11.0212 23 12ZM9.5 11.25C9.94501 11.25 10.38 11.118 10.75 10.8708C11.12 10.6236 11.4084 10.2722 11.5787 9.86104C11.749 9.4499 11.7936 8.9975 11.7068 8.56105C11.62 8.12459 11.4057 7.72368 11.091 7.40901C10.7763 7.09434 10.3754 6.88005 9.93895 6.79323C9.5025 6.70642 9.0501 6.75097 8.63896 6.92127C8.22783 7.09157 7.87643 7.37996 7.62919 7.74997C7.38196 8.11998 7.25 8.55499 7.25 9C7.25 9.59674 7.48705 10.169 7.90901 10.591C8.33097 11.0129 8.90326 11.25 9.5 11.25ZM16.7806 8.78063C16.8503 8.71094 16.9056 8.62822 16.9433 8.53717C16.981 8.44613 17.0004 8.34855 17.0004 8.25C17.0004 8.15145 16.981 8.05387 16.9433 7.96283C16.9056 7.87178 16.8503 7.78906 16.7806 7.71937C16.7109 7.64969 16.6282 7.59442 16.5372 7.5567C16.4461 7.51899 16.3485 7.49958 16.25 7.49958C16.1515 7.49958 16.0539 7.51899 15.9628 7.5567C15.8718 7.59442 15.7891 7.64969 15.7194 7.71937L8.21937 15.2194C8.14969 15.2891 8.09442 15.3718 8.0567 15.4628C8.01899 15.5539 7.99958 15.6515 7.99958 15.75C7.99958 15.8485 8.01899 15.9461 8.0567 16.0372C8.09442 16.1282 8.14969 16.2109 8.21937 16.2806C8.36011 16.4214 8.55098 16.5004 8.75 16.5004C8.84855 16.5004 8.94613 16.481 9.03717 16.4433C9.12822 16.4056 9.21094 16.3503 9.28063 16.2806L16.7806 8.78063ZM17.75 15C17.75 14.555 17.618 14.12 17.3708 13.75C17.1236 13.38 16.7722 13.0916 16.361 12.9213C15.9499 12.751 15.4975 12.7064 15.061 12.7932C14.6246 12.88 14.2237 13.0943 13.909 13.409C13.5943 13.7237 13.38 14.1246 13.2932 14.561C13.2064 14.9975 13.251 15.4499 13.4213 15.861C13.5916 16.2722 13.88 16.6236 14.25 16.8708C14.62 17.118 15.055 17.25 15.5 17.25C16.0967 17.25 16.669 17.0129 17.091 16.591C17.5129 16.169 17.75 15.5967 17.75 15Z" fill="white"/>
</g>
</svg>
