<svg width="14" height="15" viewBox="0 0 14 15" fill="none" xmlns="http://www.w3.org/2000/svg">
<g id="Wallet">
<path id="Vector" d="M11.8125 4H3.0625C2.94647 4 2.83519 3.95391 2.75314 3.87186C2.67109 3.78981 2.625 3.67853 2.625 3.5625C2.625 3.44647 2.67109 3.33519 2.75314 3.25314C2.83519 3.17109 2.94647 3.125 3.0625 3.125H10.5C10.616 3.125 10.7273 3.07891 10.8094 2.99686C10.8914 2.91481 10.9375 2.80353 10.9375 2.6875C10.9375 2.57147 10.8914 2.46019 10.8094 2.37814C10.7273 2.29609 10.616 2.25 10.5 2.25H3.0625C2.7144 2.25 2.38056 2.38828 2.13442 2.63442C1.88828 2.88056 1.75 3.2144 1.75 3.5625V10.5625C1.75 10.9106 1.88828 11.2444 2.13442 11.4906C2.38056 11.7367 2.7144 11.875 3.0625 11.875H11.8125C12.0446 11.875 12.2671 11.7828 12.4312 11.6187C12.5953 11.4546 12.6875 11.2321 12.6875 11V4.875C12.6875 4.64294 12.5953 4.42038 12.4312 4.25628C12.2671 4.09219 12.0446 4 11.8125 4ZM9.84375 8.375C9.71396 8.375 9.58708 8.33651 9.47916 8.2644C9.37124 8.19229 9.28712 8.0898 9.23745 7.96989C9.18778 7.84997 9.17479 7.71802 9.20011 7.59072C9.22543 7.46342 9.28793 7.34649 9.37971 7.25471C9.47149 7.16293 9.58842 7.10043 9.71572 7.07511C9.84302 7.04979 9.97497 7.06278 10.0949 7.11245C10.2148 7.16212 10.3173 7.24624 10.3894 7.35416C10.4615 7.46208 10.5 7.58896 10.5 7.71875C10.5 7.8928 10.4309 8.05972 10.3078 8.18279C10.1847 8.30586 10.0178 8.375 9.84375 8.375Z" fill="white"/>
</g>
</svg>
